:SAMPLES-PER-SECOND 30
:FULLY-SPECIFIED
:DEGREES
245
root  -8.41693 30.5347 39.569 11.9537 -9.84211 -2.29933
RightUpLeg  -57.4569 -8.3988 10.1363
RightLeg  77.0153 14.6231 -8.15625
RightFoot  -32.7865 -0.00270845 -0.656677
RightToes  -5.82073e-011 -3.18055e-015 -2.98177e-016
Spine  32.1578 -1.55572 4.97813
Spine1  -10.8318 -2.38629 8.18385
HEad  -44.3395 15.0189 -1.55474
LeftShoulder1  -3.88251e-019 9.70628e-020 -3.87848e-018
LeftArm  -11.1365 38.9687 -59.6666
LeftForeArm  -38.1977 -40.411 7.75283
LeftHand  -2.40819 -8.78677 20.3714
RightShoulder  4.77522 8.78921 24.0765
RightArm  2.4543 -57.2504 33.1366
RightForeArm  -28.6046 55.3868 -38.1337
RightHand  -6.01334 12.9547 -36.6663
LeftUpLeg  -55.8748 3.27698 -4.8292
LeftLeg  76.6073 -10.0828 22.1984
LeftFoot  -34.2796 -1.1917 -5.85818
LeftToes  5.79026e-011 9.70705e-012 -3.73859e-011
246
root  -8.45883 31.6178 39.6562 9.56422 -8.79487 -2.30972
RightUpLeg  -52.1511 -9.80761 9.68996
RightLeg  72.4799 14.0742 -7.82746
RightFoot  -30.5158 0.0262883 -0.489595
RightToes  -5.82073e-011 -3.18055e-015 -2.98177e-016
Spine  32.4695 -1.52978 5.54045
Spine1  -14.0327 -1.80902 7.622
HEad  -41.7558 13.1178 -1.32493
LeftShoulder1  -3.88251e-019 9.70628e-020 -3.87848e-018
LeftArm  -11.7115 23.2144 -57.3205
LeftForeArm  -36.0849 -45.0989 9.50516
LeftHand  -2.78446 -10.0299 21.5578
RightShoulder  4.3877 8.63507 22.009
RightArm  0.211965 -39.9561 41.4645
RightForeArm  -28.7548 58.764 -44.6464
RightHand  -6.46602 13.8808 -37.4573
LeftUpLeg  -50.877 4.28135 -4.62043
LeftLeg  72.5799 -8.98045 19.6746
LeftFoot  -32.3642 -0.783611 -4.09765
LeftToes  5.79026e-011 9.70705e-012 -3.73859e-011
247
root  -8.50982 32.923 39.9011 8.35392 -8.22873 -2.19928
RightUpLeg  -47.5609 -11.5747 9.42598
RightLeg  66.8944 13.299 -7.91174
RightFoot  -27.6555 -0.0146908 -0.869949
RightToes  -5.82073e-011 -3.18055e-015 -2.98177e-016
Spine  32.2068 -1.28938 6.22509
Spine1  -18.1309 -1.04756 5.98437
HEad  -39.0925 10.4513 0.187444
LeftShoulder1  -3.88251e-019 9.70628e-020 -3.87848e-018
LeftArm  -12.5314 9.37736 -55.4359
LeftForeArm  -34.001 -53.2047 13.3379
LeftHand  -2.81238 -10.8723 20.6299
RightShoulder  3.06504 7.55286 15.395
RightArm  -3.68052 -26.9352 48.1421
RightForeArm  -39.4247 63.5766 -57.7839
RightHand  -6.70023 14.5177 -37.5631
LeftUpLeg  -46.4137 5.68751 -4.75739
LeftLeg  67.4057 -7.67662 17.786
LeftFoot  -29.7021 -0.427965 -2.3837
LeftToes  5.79026e-011 9.70705e-012 -3.73859e-011
248
root  -8.56014 34.6435 40.298 7.49016 -7.64613 -2.18752
RightUpLeg  -41.9036 -15.011 9.43591
RightLeg  59.8642 13.8119 -5.00644
RightFoot  -22.451 -0.107466 -2.61935
RightToes  -5.82073e-011 -3.18055e-015 -2.98177e-016
Spine  31.5215 -1.36274 7.3895
Spine1  -21.9178 -0.665077 3.46942
HEad  -36.7772 7.5925 2.08124
LeftShoulder1  -3.88251e-019 9.70628e-020 -3.87848e-018
LeftArm  -12.1315 -1.27749 -53.0348
LeftForeArm  -34.7973 -63.6413 21.2185
LeftHand  -2.59158 -11.0383 18.8788
RightShoulder  1.46528 5.95739 6.37515
RightArm  -10.4407 -18.9997 52.4985
RightForeArm  -60.2084 67.1522 -78.9505
RightHand  -6.80713 15.1164 -37.0843
LeftUpLeg  -40.9587 8.43091 -5.05382
LeftLeg  60.2396 -6.80774 14.4154
LeftFoot  -24.7324 -0.136796 -0.507057
LeftToes  5.79026e-011 9.70705e-012 -3.73859e-011
249
root  -8.59666 37.4889 40.7874 6.0648 -7.02559 -1.88018
RightUpLeg  -32.5887 -20.1954 8.3322
RightLeg  47.0205 18.0958 0.919912
RightFoot  -10.0744 0.0380375 -2.41925
RightToes  -5.82073e-011 -3.18055e-015 -2.98177e-016
Spine  29.1346 -1.74598 8.28544
Spine1  -22.5991 -0.806549 0.806031
HEad  -33.1549 5.68983 3.60842
LeftShoulder1  -3.88251e-019 9.70628e-020 -3.87848e-018
LeftArm  -12.0396 -8.00312 -49.2414
LeftForeArm  -47.8451 -74.4474 41.4941
LeftHand  -2.34962 -10.8042 17.4172
RightShoulder  0.441151 4.79754 -0.627647
RightArm  -16.9514 -14.3297 52.1001
RightForeArm  -83.0906 67.2573 -102.171
RightHand  -6.63615 15.4428 -35.6865
LeftUpLeg  -31.8555 11.7138 -4.92971
LeftLeg  46.6879 -7.52221 8.31735
LeftFoot  -12.6674 -0.0193235 0.304832
LeftToes  5.79026e-011 9.70705e-012 -3.73859e-011
250
root  -8.71705 41.1099 41.6284 5.39764 -6.91614 -0.57025
RightUpLeg  -20.7513 -19.7293 4.28107
RightLeg  26.2525 18.3782 3.42272
RightFoot  8.71108 -0.86294 3.69233
RightToes  -5.82073e-011 -3.18055e-015 -2.98177e-016
Spine  22.5939 -1.57123 6.96132
Spine1  -19.2572 -0.908203 -0.486563
HEad  -25.8755 4.90032 4.06955
LeftShoulder1  -3.88251e-019 9.70628e-020 -3.87848e-018
LeftArm  -14.5348 -10.5189 -43.7543
LeftForeArm  -94.6332 -79.1423 93.2557
LeftHand  -1.93013 -9.83602 15.276
RightShoulder  -0.248556 3.30058 -5.85885
RightArm  -22.0806 -11.3698 50.3125
RightForeArm  -96.428 65.6863 -115.969
RightHand  -6.41177 15.6876 -34.1804
LeftUpLeg  -20.0856 11.5958 -4.34611
LeftLeg  25.8708 -8.87577 2.86623
LeftFoot  6.64912 0.532586 -2.47047
LeftToes  5.79026e-011 9.70705e-012 -3.73859e-011
251
root  -8.91794 44.0464 42.7663 7.04391 -7.60369 0.873747
RightUpLeg  -11.8565 -2.5957 -2.45958
RightLeg  7.46564 -1.0412 1.81079
RightFoot  23.61 -3.9249 11.6898
RightToes  -5.82073e-011 -3.18055e-015 -2.98177e-016
Spine  12.6313 -0.83192 4.30575
Spine1  -15.3026 -0.739388 0.105162
HEad  -15.054 4.45771 3.2579
LeftShoulder1  -3.88251e-019 9.70628e-020 -3.87848e-018
LeftArm  -19.2011 -9.06414 -37.3548
LeftForeArm  -132.592 -75.2528 132.643
LeftHand  -1.40376 -8.23096 12.566
RightShoulder  -0.829178 0.363041 -11.0563
RightArm  -26.2198 -10.2957 50.8282
RightForeArm  -101.557 64.5172 -122.034
RightHand  -6.2734 15.535 -33.7184
LeftUpLeg  -11.8579 3.19884 -3.08311
LeftLeg  8.78597 -4.20284 1.77662
LeftFoot  22.9894 2.46358 -7.49434
LeftToes  5.79026e-011 9.70705e-012 -3.73859e-011
252
root  -9.00035 46.1896 43.5118 9.67216 -8.54523 0.912553
RightUpLeg  -13.2006 -6.37536 -0.835536
RightLeg  9.34964 2.18613 0.957803
RightFoot  25.7753 -5.51894 15.2911
RightToes  -5.82073e-011 -3.18055e-015 -2.98177e-016
Spine  5.49182 -0.227823 3.87877
Spine1  -14.2424 -0.393202 0.988123
HEad  -4.62628 4.0422 2.2772
LeftShoulder1  -3.88251e-019 9.70628e-020 -3.87848e-018
LeftArm  -23.4664 -4.17967 -31.0897
LeftForeArm  -149.065 -69.9833 148.128
LeftHand  -1.20923 -7.13832 11.831
RightShoulder  -1.07415 -2.1589 -14.4976
RightArm  -29.8389 -12.7882 50.483
RightForeArm  -106.397 63.0543 -127.73
RightHand  -6.25339 14.7114 -34.9156
LeftUpLeg  -12.6552 -1.709 -2.60399
LeftLeg  10.4513 -1.18444 2.99545
LeftFoot  27.4774 3.58405 -9.50015
LeftToes  5.79026e-011 9.70705e-012 -3.73859e-011
253
root  -8.93188 47.7063 43.5859 10.066 -8.95383 -0.211569
RightUpLeg  -19.4147 -20.4658 3.71838
RightLeg  30.6863 22.8023 4.0305
RightFoot  18.0852 -4.60561 15.9758
RightToes  -5.82073e-011 -3.18055e-015 -2.98177e-016
Spine  5.47602 0.124338 5.85533
Spine1  -15.1559 0.136191 0.644016
HEad  0.632878 3.91913 2.50093
LeftShoulder1  -3.88251e-019 9.70628e-020 -3.87848e-018
LeftArm  -26.1633 3.76437 -24.8422
LeftForeArm  -159.988 -64.5383 156.444
LeftHand  -1.53771 -7.1499 14.8405
RightShoulder  -1.00914 -1.48111 -13.5134
RightArm  -32.7142 -20.4113 43.6101
RightForeArm  -116.574 60.412 -135.69
RightHand  -6.78351 13.872 -39.1371
LeftUpLeg  -18.9718 5.99676 -3.02364
LeftLeg  30.5626 -8.82776 4.0451
LeftFoot  24.3124 2.91512 -8.3835
LeftToes  5.79026e-011 9.70705e-012 -3.73859e-011
254
root  -8.84598 48.2465 43.2542 8.17667 -8.8086 -1.05973
RightUpLeg  -24.8827 -17.6235 4.44416
RightLeg  59.6207 24.0743 13.4154
RightFoot  10.1618 -2.81476 13.2791
RightToes  -5.82073e-011 -3.18055e-015 -2.98177e-016
Spine  8.3253 -0.00215716 6.89743
Spine1  -12.2932 0.484499 0.515748
HEad  -0.975032 4.38026 3.45565
LeftShoulder1  -3.88251e-019 9.70628e-020 -3.87848e-018
LeftArm  -27.4477 15.5138 -19.1663
LeftForeArm  -167.74 -59.8979 160.996
LeftHand  -2.1742 -7.94028 19.5865
RightShoulder  -0.479051 1.08333 -7.05866
RightArm  -33.6299 -30.2504 31.1719
RightForeArm  -129.334 57.6774 -141.976
RightHand  -7.89303 13.4207 -45.9063
LeftUpLeg  -26.2462 9.28131 -2.69149
LeftLeg  57.3152 -11.8321 3.90303
LeftFoot  21.7193 2.29571 -7.14144
LeftToes  5.79026e-011 9.70705e-012 -3.73859e-011
